<svg version="1.1" id="Layer_1" xmlns="http://www.w3.org/2000/svg" xmlns:xlink="http://www.w3.org/1999/xlink" x="0px" y="0px" viewBox="0 0 500 500" style="width: 186px;" xml:space="preserve" data-imageid="online-class-27" imageName="Online Class" class="illustrations_image">
<style type="text/css">
	.st0_online-class-27{fill:#DD6F31;}
	.st1_online-class-27{fill:url(#SVGID_1_);}
	.st2_online-class-27{fill:url(#SVGID_00000160911431923677693270000003545940822360043666_);}
	.st3_online-class-27{fill:url(#SVGID_00000008868752415699672760000011214573152525518772_);}
	.st4_online-class-27{fill:#56403D;}
	.st5_online-class-27{fill:#68E1FD;}
	.st6_online-class-27{fill:#FFFFFF;}
	.st7_online-class-27{fill:#159E97;}
	.st8_online-class-27{opacity:0.4;fill:#FFFFFF;enable-background:new    ;}
	.st9_online-class-27{fill:#FFE0DE;}
	.st10_online-class-27{fill:#E0902F;}
	.st11_online-class-27{fill:#173743;}
	.st12_online-class-27{fill:#E85858;}
	.st13_online-class-27{opacity:0.6;fill:#FFFFFF;enable-background:new    ;}
	.st14_online-class-27{opacity:0.42;fill:#173743;enable-background:new    ;}
	.st15_online-class-27{fill:#CCCCCC;}
	.st16_online-class-27{opacity:0.4;fill:#FFE0DE;enable-background:new    ;}
</style>
<g id="background_online-class-27">
	<path class="st0_online-class-27" d="M244.1,419.2L21.3,287.5c-7.1-4-13.2-10.5-6.3-14.8l223.6-128.9c3.4-2.1,8.4-3.4,11.9-1.5l233.9,135.8&#10;&#9;&#9;c7.1,4.1,8.4,15.6,1.3,19.8L273.5,419C264.5,424.3,253.3,424.3,244.1,419.2z"/>
	
		<linearGradient id="SVGID_1_-online-class-27" gradientUnits="userSpaceOnUse" x1="119.0954" y1="241.0444" x2="153.2454" y2="276.8044" gradientTransform="matrix(1 0 0 -1 0 502)">
		<stop offset="0" style="stop-color:#DD6F31"/>
		<stop offset="1" style="stop-color:#56403D"/>
	</linearGradient>
	<path class="st1_online-class-27" d="M134,277c5.5-3.4,31.5-20,36.9-23.5c9.2-6,21-14.6,21-14.6l-58.8-27.6l-49.3,32.4c8.9,4.7,35.8,36.9,40.3,39.4&#10;&#9;&#9;C126.2,281.9,132,278.2,134,277z"/>
	
		<linearGradient id="SVGID_00000063625531398196965140000003692024703543066798_-online-class-27" gradientUnits="userSpaceOnUse" x1="253.9555" y1="169.5615" x2="284.6055" y2="261.5115" gradientTransform="matrix(1 0 0 -1 0 502)">
		<stop offset="0" style="stop-color:#DD6F31"/>
		<stop offset="1" style="stop-color:#56403D"/>
	</linearGradient>
	<path style="fill:url(#SVGID_00000063625531398196965140000003692024703543066798_);" d="M264.4,356.1c18.6-10,75.8-55.9,76.9-59.1&#10;&#9;&#9;l-62.8-40.4l-91,48.1C207,314.9,237.6,339.5,264.4,356.1z"/>
	
		<linearGradient id="SVGID_00000155130132197771586850000016304983497933981058_-online-class-27" gradientUnits="userSpaceOnUse" x1="50.0272" y1="200.5027" x2="73.2272" y2="224.7927" gradientTransform="matrix(1 0 0 -1 0 502)">
		<stop offset="0" style="stop-color:#DD6F31"/>
		<stop offset="1" style="stop-color:#56403D"/>
	</linearGradient>
	<path style="fill:url(#SVGID_00000155130132197771586850000016304983497933981058_);" d="M61.8,311.4c5.5-3.3,10.9-6.8,16.3-10.3&#10;&#9;&#9;c9.2-6,13.1-7.1,21.7-14.3L63,270.7l-37.7,19.2C34.3,294.6,57.3,308.9,61.8,311.4C63.8,310.2,59.8,312.6,61.8,311.4z"/>
</g>
<g id="monitor_online-class-27">
	<path class="st4_online-class-27" d="M302.2,245.2l-23.6,11.4c-2.7,1.3-3.8,4.5-2.5,7.2c0.5,1,1.2,1.8,2.2,2.3l55.9,32.6c2.5,1.5,5.7,0.7,7.3-1.8&#10;&#9;&#9;l13.6-21.1"/>
	<path class="st5_online-class-27 targetColor" d="M420.5,184.8L228.1,74c-3-1.7-6.8-0.7-8.5,2.3c-0.6,1-0.8,2-0.8,3.1v117.8c0,1.7,0.9,3.3,2.4,4.2L426,319.6&#10;&#9;&#9;c1.1,0.6,2.5,0.3,3.2-0.8c0.2-0.4,0.3-0.8,0.3-1.2V200.3C429.5,193.9,426.1,188,420.5,184.8z" style="fill: rgb(62, 64, 148);"/>
	<path class="st6_online-class-27" d="M231.5,84.4l182.3,104.9c4,2.3,6.4,6.5,6.4,11.1v84.5c0,2.6-2.1,4.6-4.6,4.6c-0.8,0-1.6-0.2-2.3-0.6&#10;&#9;&#9;L227.3,182.1c-1.4-0.8-2.3-2.4-2.3-4v-90c0-2.4,1.9-4.3,4.3-4.3C230.1,83.9,230.8,84,231.5,84.4z"/>
	<path class="st5_online-class-27 targetColor" d="M408.3,191.9c-0.1,1.1-1,1.9-2.1,1.8c-1.1-0.1-1.9-1-1.8-2.1c0.1-1,0.9-1.8,2-1.8&#10;&#9;&#9;C407.4,189.8,408.3,190.7,408.3,191.9C408.3,191.9,408.3,191.9,408.3,191.9z" style="fill: rgb(62, 64, 148);"/>
	<ellipse class="st5_online-class-27 targetColor" cx="400" cy="188.7" rx="2" ry="2.1" style="fill: rgb(62, 64, 148);"/>
	<path class="st7_online-class-27" d="M233.6,106.2l14.8,7.9l23.6,12.6l5.5,2.9c2.1,1.1,4-2.1,1.9-3.2l-14.8-7.9L241,105.9l-5.5-2.9&#10;&#9;&#9;C233.4,101.9,231.5,105.1,233.6,106.2L233.6,106.2z"/>
	<path class="st7_online-class-27" d="M344.5,215.5l-2.9-44.1c-1.3,1.1-5.3,26.1-7.4,43C337.7,214.7,341.1,215.1,344.5,215.5z"/>
	<path class="st8_online-class-27" d="M344.5,215.5l-2.9-44.1c-1.3,1.1-5.3,26.1-7.4,43C337.7,214.7,341.1,215.1,344.5,215.5z"/>
	<path class="st9_online-class-27" d="M314.8,161.8l-6.7-1.3l-0.1,0.3c-0.4-0.2-0.8-0.4-1.2-0.5c-1.3-0.4-2.7,0.3-3.2,1.6c-0.2,0.5-0.2,1.1,0,1.6&#10;&#9;&#9;c-0.4,0.4-0.7,1-0.7,1.7c0,0.7,0.3,1.3,0.7,1.8c-0.4,0.8-0.3,1.7,0.3,2.4c0.8,0.7,1.8,1.1,2.8,1.3c1.8,3.4,6,8,7.3,7.3&#10;&#9;&#9;c1.7-0.9,4.2-5.4,4.2-5.4L314.8,161.8z"/>
	<polyline class="st4_online-class-27" points="313,164.1 282.6,119.7 281.4,120.2 314.2,173.2 &#9;"/>
	<path class="st9_online-class-27" d="M320.7,171.4c0,0-1.2-9.4-2.9-10.5s-7.5-3.4-8.6-2.2s-2.1,3.7-1,4.7s3-1.4,3-1.4l1.8,1.3c0,0-2.3,2-2.1,6.7&#10;&#9;&#9;c0.2,2.9,1.4,5.7,3.4,7.8L320.7,171.4z"/>
	<path class="st7_online-class-27" d="M341,196.7c0,0-18.1-25.9-20.3-25.3s-9.2,4.1-8.7,6.9s14.8,44,34.3,41.6"/>
	<path class="st8_online-class-27" d="M341,196.7c0,0-18.1-25.9-20.3-25.3s-9.2,4.1-8.7,6.9s14.8,44,34.3,41.6"/>
	<path class="st9_online-class-27" d="M411.8,170.9l0.8-1.3c-0.5-0.3-0.8-1-0.5-1.5c0.6-1.4,1.3-2.9,2-4.3c0-0.2,0-0.4,0-0.5&#10;&#9;&#9;c0.7-3.3,1.5-6.6,1.1-9.9c-0.3-2.7-1.1-5.2-1.4-7.9c-0.1-1,1-1.3,1.7-1c0.6,0.3,1.1,0.8,1.4,1.4c0.8,1.2,1.4,2.6,1.6,4&#10;&#9;&#9;c0.1-0.6,0.2-1.2,0.5-1.8c0.2-0.7,0.4-1.5,0.5-2.2c0.3-1.2,0.6-2.3,1.1-3.3c0.5-1,1.6-1.5,2.2-0.8c0.9,1,0.1,2.8-0.1,3.9&#10;&#9;&#9;s-0.4,2.2-0.6,3.4c0.5-1.1,1.4-3,2-4.3c0.5-1,1.8-4.3,3.2-3.8c1.6,0.5,0.8,2.7,0.4,3.7s-0.8,2-1.1,3s-0.7,2.1-1.1,2.9&#10;&#9;&#9;c0,0,1.5-2.2,2.3-3.4c0.6-0.9,1.2-2.3,2.6-1.9c0.9,0.3,0.8,1.6,0.4,2.4c-1.1,2.1-2.3,4.1-3.6,6c0.8-0.8,1.6-1.5,2.4-2.3&#10;&#9;&#9;c0.5-0.4,1.2-0.4,1.7,0.1c0.2,0.2,0.3,0.6,0.3,0.9c0,0.2-0.1,0.4-0.2,0.6l-10.5,15c-1,2.4-2.5,4.6-4.3,6.5c-1,1.1-2.6-0.6-1.6-1.6&#10;&#9;&#9;l0.1-0.2c0-0.1-0.1-0.1-0.1-0.2c-0.3-0.1-0.6-0.3-0.8-0.6L414,172c-0.1,0.1-0.2,0.1-0.4,0.2c-0.4,0.5-1.1,0.6-1.6,0.2&#10;&#9;&#9;C411.6,172,411.5,171.4,411.8,170.9z"/>
	<path class="st4_online-class-27" d="M419.8,150.8c1.8,1.4,2.8,3.7,2.6,6c0,0.5-0.9,0.5-0.8,0c0.2-2.1-0.7-4.1-2.3-5.4&#10;&#9;&#9;C418.8,151,419.4,150.5,419.8,150.8z"/>
	<path class="st4_online-class-27" d="M420.9,149.6c0.6-2.1,1.1-4.2,1.5-6.4c0.1-0.5,0.9-0.3,0.8,0.2c-0.4,2.2-0.9,4.3-1.5,6.4&#10;&#9;&#9;c-0.1,0.2-0.3,0.3-0.5,0.2C421,150,420.9,149.8,420.9,149.6z"/>
	<path class="st4_online-class-27" d="M424.3,151.3c1.1-2.3,2-4.8,2.6-7.3c0.1-0.2,0.3-0.3,0.5-0.3c0.2,0.1,0.3,0.3,0.3,0.5l0,0&#10;&#9;&#9;c-0.7,2.6-1.6,5.1-2.7,7.5C424.8,152.2,424.1,151.8,424.3,151.3z"/>
	<path class="st4_online-class-27" d="M425.5,154.5c1.7-2,3.2-4.2,4.3-6.5c0.2-0.5,0.9-0.1,0.7,0.4c-1.2,2.4-2.7,4.6-4.4,6.7&#10;&#9;&#9;C425.8,155.4,425.2,154.9,425.5,154.5z"/>
	<path class="st7_online-class-27" d="M363,163.9c4.7,0.2,9.4,1.7,13.4,4.2c3.1,2,4.8,5.3,8.2,6.9c4.5,2.2,11,2.2,14.7-1.6c2-2.2,3.8-4.4,5.6-6.8&#10;&#9;&#9;c1.4-1.8,7-10.9,10-9.8c3.5,1.3,8.5,6.2,8.7,9S409,197.6,396,199.6s-23.3-5.2-23.3-5.2"/>
	<path class="st8_online-class-27" d="M363,163.9c4.7,0.2,9.4,1.7,13.4,4.2c3.1,2,4.8,5.3,8.2,6.9c4.5,2.2,11,2.2,14.7-1.6c2-2.2,3.8-4.4,5.6-6.8&#10;&#9;&#9;c1.4-1.8,7-10.9,10-9.8c3.5,1.3,8.5,6.2,8.7,9S409,197.6,396,199.6s-23.3-5.2-23.3-5.2"/>
	<path class="st7_online-class-27" d="M389.3,250c-2.8-10.1-7-19.1-11.6-28.4l-31.6-0.3c-0.7,4.3-1.9,8.5-2.7,12.9c-0.8,4.7-1.1,9.4-0.9,14.1&#10;&#9;&#9;c8.9,5,20.7,11.9,29.2,16.7l23.5,13.5C393.2,269.2,392,259.2,389.3,250z"/>
	<path class="st7_online-class-27" d="M379.4,193.2c-0.5-6.9-1.1-13.9-2-20.8c-4-4.9-9.4-8.7-15.3-9.5s-14.7,0.8-18.7,5.6c-3.8,4.6-3.2,11.1-3,16.6&#10;&#9;&#9;c0.1,3.4,0.3,6.7,0.5,10c1.8,9,4.3,17.8,4.8,27c8.8,4.1,22.1,2,32-0.7C378.3,212.1,379,202.7,379.4,193.2z"/>
	<path class="st9_online-class-27" d="M366.1,158.8v8.3c-3.3,1-6.7,1-10,0v-7.5"/>
	<path class="st8_online-class-27" d="M379.4,193.2c-0.5-6.9-1.1-13.9-2-20.8c-4-4.9-9.4-8.7-15.3-9.5s-14.7,0.8-18.7,5.6c-3.8,4.6-3.2,11.1-3,16.6&#10;&#9;&#9;c0.1,3.4,0.3,6.7,0.5,10c1.8,9,4.3,17.8,4.8,27c8.8,4.1,22.1,2,32-0.7C378.3,212.1,379,202.7,379.4,193.2z"/>
	<path class="st7_online-class-27" d="M366.3,162.3c-0.7,1.6-1.6,3-2.8,4.3c-1.3,1.4-3,0.9-5,1.1l1.3,10.2l8.8-12.4L366.3,162.3z"/>
	<path class="st7_online-class-27" d="M358.5,167.6l-4.2,9.4l-0.7-8.7l2.9-5.7C356.4,162.5,355.5,167.4,358.5,167.6z"/>
	<path class="st9_online-class-27" d="M348.7,139.7c-0.6,0.1-4.3,24.9,6,25.1s12.3-7.9,12.6-10s-3-8.4-4-10.7S351.2,139,348.7,139.7z"/>
	<path class="st10_online-class-27" d="M347.4,137.2c3.1-5.6,15.1-6.9,23.5,0.8c2.1,1.9,3.2,5.1,3.4,8.4c-0.4,6.3-4.2,11.9-9.9,14.6c0,0,0-0.1,0-0.1&#10;&#9;&#9;s0.1-0.3,0.1-0.5s0-0.2,0.1-0.3c0.9-4.3,0.7-9.8-1.4-13.7s-6.2-5-10.2-5.6c-1.3-0.3-2.7-0.5-4-0.4l-1.3,6.4&#10;&#9;&#9;C347.7,146.8,344.3,142.8,347.4,137.2z"/>
	<circle class="st10_online-class-27" cx="378.2" cy="140.2" r="7.9"/>
	<path class="st10_online-class-27" d="M347.5,144.8h9.7l0.9-2.9l0.8,3.6l2.8,0.2c0,0,0.1,15,2.3,15.3s5.1-6.1,5.5-9.9s-1.8-11.9-8.8-14&#10;&#9;&#9;C351.9,134.3,347.9,137.9,347.5,144.8z"/>
	<path class="st7_online-class-27" d="M341.8,181.8c0.1-0.8-1.2-0.8-1.3,0c-1.3,14.5,5,28.2,5.5,42.6c0,0.8,1.3,0.8,1.3,0&#10;&#9;&#9;C346.8,210,340.4,196.3,341.8,181.8z"/>
	<path class="st7_online-class-27" d="M382,197.5c-2.9-0.5-5.6-1.9-7.7-3.9c-0.6-0.6-1.5,0.4-0.9,0.9c2.3,2.1,5.2,3.6,8.3,4.2&#10;&#9;&#9;C382.4,198.9,382.8,197.6,382,197.5z"/>
	<path class="st7_online-class-27" d="M233.6,121.6l14.8,7.9l23.6,12.6l5.5,2.9c2.1,1.1,4-2.1,1.9-3.2l-14.8-7.9L241,121.3l-5.5-2.9&#10;&#9;&#9;C233.4,117.2,231.5,120.5,233.6,121.6L233.6,121.6z"/>
	<path class="st7_online-class-27" d="M233.6,136.5l14.8,7.9L272,157l5.5,2.9c2.1,1.1,4-2.1,1.9-3.2l-14.8-7.9L241,136.2l-5.5-2.9&#10;&#9;&#9;C233.4,132.1,231.5,135.3,233.6,136.5L233.6,136.5z"/>
	<ellipse transform="matrix(0.9477 -0.3192 0.3192 0.9477 -40.6112 86.7462)" class="st5_online-class-27 targetColor" cx="244.3" cy="167.3" rx="8.9" ry="14" style="fill: rgb(62, 64, 148);"/>
	<ellipse transform="matrix(0.948 -0.3183 0.3183 0.948 -43.7138 94.7895)" class="st5_online-class-27 targetColor" cx="268.2" cy="181.2" rx="8.9" ry="14" style="fill: rgb(62, 64, 148);"/>
</g>
<g id="stationary_online-class-27">
	<path class="st11_online-class-27" d="M81.3,219.6c-16.9,0-30.7,4.5-30.7,10H112C112,224.1,98.3,219.6,81.3,219.6z"/>
	<path class="st11_online-class-27" d="M50.8,230.4c-0.1-0.5-0.1-0.8-0.1-0.8C50.7,229.9,50.7,230.2,50.8,230.4z"/>
	<path class="st11_online-class-27" d="M112,229.6l-0.1,0.9C112,230.2,112,229.9,112,229.6z"/>
	<path class="st11_online-class-27" d="M81.3,239.7c16,0,29.2-4,30.5-9.1l0.1-0.9H50.7c0,0,0,0.3,0.1,0.8C52,235.6,65.2,239.7,81.3,239.7z"/>
	<path class="st8_online-class-27" d="M81.3,219.6c-16.9,0-30.7,4.5-30.7,10H112C112,224.1,98.3,219.6,81.3,219.6z"/>
	<path class="st8_online-class-27" d="M81.3,239.7c16,0,29.2-4,30.5-9.1l0.1-0.9H50.7c0,0,0,0.3,0.1,0.8C52,235.6,65.2,239.7,81.3,239.7z"/>
	<rect x="86.2" y="177.9" class="st7_online-class-27" width="6.9" height="71.2"/>
	<ellipse class="st7_online-class-27" cx="89.6" cy="177.9" rx="3.4" ry="1.5"/>
	
		<rect x="62.3" y="222.2" transform="matrix(0.2001 -0.9798 0.9798 0.2001 -142.7554 276.4196)" class="st10_online-class-27" width="71.2" height="6.9"/>
	
		<ellipse transform="matrix(0.2001 -0.9798 0.9798 0.2001 -102.8915 255.4831)" class="st10_online-class-27" cx="105" cy="190.8" rx="1.5" ry="3.4"/>
	<path class="st5_online-class-27 targetColor" d="M73,231.2l-6.3,3.6c-0.3,0.2-0.6,0.1-0.8-0.2c-0.2-0.3-0.1-0.6,0.2-0.8l6.4-3.7c0.1,0,0.1-0.1,0.2-0.1&#10;&#9;&#9;l-1.3-6.8l-6.3,3.6c-0.3,0.2-0.6,0.1-0.8-0.2c-0.2-0.3-0.1-0.6,0.2-0.8l6.4-3.7c0.1,0,0.2-0.1,0.2-0.1l-1.2-6.3l-6.2,3.6&#10;&#9;&#9;c-0.3,0.2-0.6,0.1-0.8-0.2c-0.2-0.3-0.1-0.6,0.2-0.8l6.5-3.7l0.1-0.1l-1.3-7l-6.2,3.6c-0.3,0.2-0.6,0.1-0.8-0.2&#10;&#9;&#9;c-0.2-0.3-0.1-0.6,0.2-0.8l6.5-3.7h0.1l-1.3-6.9l-6.3,3.6c-0.3,0.2-0.6,0.1-0.8-0.2c-0.2-0.3-0.1-0.6,0.2-0.8l0,0l6.4-3.7&#10;&#9;&#9;c0.1,0,0.1-0.1,0.2-0.1l-1.1-6l-6.3,3.6c-0.3,0.2-0.6,0.1-0.8-0.2c-0.2-0.3-0.1-0.6,0.2-0.8l6.4-3.7c0.1,0,0.1-0.1,0.2-0.1l-1.1-6&#10;&#9;&#9;l-6.3,3.6c-0.3,0.2-0.6,0.1-0.8-0.2c-0.2-0.3-0.1-0.6,0.2-0.8l6.4-3.7c0.1,0,0.1,0,0.2-0.1l-1.2-6.6l-6.2,3.6&#10;&#9;&#9;c-0.3,0.2-0.6,0.1-0.8-0.2c-0.2-0.3-0.1-0.6,0.2-0.8l6.5-3.7l0.1-0.1l-0.6-3.1l-13.7,8.5c0,0,9.7,54.1,9.9,54.2&#10;&#9;&#9;c5.7,3,16,3.3,16,3.3L73,231.2z" style="fill: rgb(62, 64, 148);"/>
	<path class="st12_online-class-27" d="M56.3,180.4c-0.3,0.2-0.4,0.5-0.2,0.8c0.2,0.3,0.5,0.4,0.8,0.2l6.2-3.6l-0.2-1.1l-0.1,0.1L56.3,180.4z"/>
	<path class="st12_online-class-27" d="M57.7,188.1c-0.3,0.2-0.4,0.5-0.2,0.8c0.2,0.3,0.5,0.4,0.8,0.2l6.3-3.6l-0.2-1.1c-0.1,0-0.1,0-0.2,0.1&#10;&#9;&#9;L57.7,188.1z"/>
	<path class="st12_online-class-27" d="M59,195.2c-0.3,0.2-0.4,0.5-0.2,0.8c0.2,0.3,0.5,0.4,0.8,0.2l6.3-3.6l-0.2-1.1c-0.1,0-0.1,0-0.2,0.1L59,195.2&#10;&#9;&#9;z"/>
	<path class="st12_online-class-27" d="M60.3,202.3c-0.3,0.2-0.4,0.5-0.2,0.8c0.2,0.3,0.5,0.4,0.8,0.2l0,0l6.3-3.6l-0.2-1.1c-0.1,0-0.1,0-0.2,0.1&#10;&#9;&#9;L60.3,202.3z"/>
	<path class="st12_online-class-27" d="M61.9,210.2c-0.3,0.2-0.4,0.5-0.2,0.8c0.2,0.3,0.5,0.4,0.8,0.2l6.2-3.6l-0.2-1.1h-0.1L61.9,210.2z"/>
	<path class="st12_online-class-27" d="M63.4,218.4c-0.3,0.2-0.4,0.5-0.2,0.8c0.2,0.3,0.5,0.4,0.8,0.2l6.2-3.6l-0.2-1.2l-0.1,0.1L63.4,218.4z"/>
	<path class="st12_online-class-27" d="M71.1,222.2l-6.4,3.7c-0.3,0.2-0.4,0.5-0.2,0.8c0.2,0.3,0.5,0.4,0.8,0.2l6.3-3.6l-0.2-1.1&#10;&#9;&#9;C71.3,222.2,71.2,222.2,71.1,222.2z"/>
	<path class="st12_online-class-27" d="M66.2,233.8c-0.3,0.2-0.4,0.5-0.2,0.8c0.2,0.3,0.5,0.4,0.8,0.2l0,0l6.3-3.6l-0.2-1.1c-0.1,0-0.1,0-0.2,0.1&#10;&#9;&#9;L66.2,233.8z"/>
	<path class="st9_online-class-27" d="M101.6,190.1c0,0,0.3,1.8,3.1,2.1s3.7-0.8,3.7-0.8l-0.9-13.6L101.6,190.1z"/>
	<path class="st4_online-class-27" d="M107.5,177.9l-2.7,5.7c0.8,0.9,2.1,1.1,3.1,0.4L107.5,177.9z"/>
	<path class="st9_online-class-27" d="M86.2,177.4c0,0,0.6,1.7,3.4,1.6s3.5-1.3,3.5-1.3l-3-13.3L86.2,177.4z"/>
	<path class="st4_online-class-27" d="M90.1,164.5l-1.8,6c0.9,0.7,2.3,0.7,3.2-0.1L90.1,164.5z"/>
	<path class="st11_online-class-27" d="M81.3,239.7c-16.1,0-29.4-4.1-30.6-9.2c0.8,6.2,6.3,48.8,6.5,49c0,0,2.8,12,24,12c18.1,0,23.2-9.1,23.2-9.1&#10;&#9;&#9;l7.3-51.8C110.5,235.6,97.4,239.7,81.3,239.7z"/>
</g>
<g id="books_online-class-27">
	<polyline class="st10_online-class-27" points="137.6,128.8 126.6,134.6 156.6,162.9 183.1,171.2 191.9,159.2 &#9;"/>
	<polyline class="st13_online-class-27" points="137.6,128.8 126.6,134.6 156.6,162.9 183.1,171.2 191.9,159.2 &#9;"/>
	<polyline class="st5_online-class-27 targetColor" points="179.1,165.2 189.3,159.4 137.6,128.8 138.8,128.1 191.9,159.2 191.9,238.9 180.3,245.5 175.9,240.9 &#9;&#10;&#9;&#9;" style="fill: rgb(62, 64, 148);"/>
	<polyline class="st14_online-class-27" points="179.1,165.2 189.3,159.4 137.6,128.8 138.8,128.1 191.9,159.2 191.9,238.9 180.3,245.5 175.9,240.9 &#10;&#9;&#9;&#9;"/>
	<polygon class="st5_online-class-27 targetColor" points="126.6,134.6 180.3,165.9 180.3,245.5 125.8,212.9 &#9;" style="fill: rgb(62, 64, 148);"/>
	<polygon class="st12_online-class-27" points="178.3,160.7 175,162.8 175,179.8 172.9,177.1 171.5,178.7 171.5,160.8 174.5,158.6 &#9;"/>
	<polyline class="st10_online-class-27" points="122.6,151.6 112.8,156.9 139.5,182 163.1,189.4 171,178.8 &#9;"/>
	<polyline class="st13_online-class-27" points="122.6,151.6 112.8,156.9 139.5,182 163.1,189.4 171,178.8 &#9;"/>
	<polyline class="st5_online-class-27 targetColor" points="159.5,184.1 168.6,178.9 122.6,151.6 123.7,151 171,178.8 171,249.8 160.6,255.7 156.7,251.6 &#9;" style="fill: rgb(62, 64, 148);"/>
	<polyline class="st14_online-class-27" points="159.5,184.1 168.6,178.9 122.6,151.6 123.7,151 171,178.8 171,249.8 160.6,255.7 156.7,251.6 &#9;"/>
	<polygon class="st5_online-class-27 targetColor" points="112.8,156.9 160.6,184.8 160.6,255.7 112,226.6 &#9;" style="fill: rgb(62, 64, 148);"/>
	<polygon class="st12_online-class-27" points="158.8,180.1 155.9,181.9 155.9,197.1 154.1,194.7 152.8,196.2 152.8,180.2 155.5,178.2 &#9;"/>
</g>
<g id="character_2_online-class-27">
	<path class="st9_online-class-27" d="M180.5,348.1c0,0-0.6,4.5,0.1,4.8c1.2,0.7,2.6,1,4,0.8c2-0.6,4-1.2,6.1-1.6c2.5-0.4,8.9,0.4,10-1.3&#10;&#9;&#9;s0-5.3,0-5.3"/>
	<path class="st4_online-class-27" d="M200.8,345.5c-0.5-2.8-4.6-1.6-6.5-2.9c-3.5-2.3-3.7-7.3-3.4-11.1l-7.8-2.7l-1.6,9l-0.9,10.2&#10;&#9;&#9;c0.8,1.1,2.1,1.8,3.5,1.8l5.2-1.2C192.6,348.4,201.1,347.4,200.8,345.5z"/>
	<path class="st9_online-class-27" d="M191.5,353.4c0,0-0.6,4.5,0.1,4.8c1.2,0.7,2.6,1,4,0.8c2-0.6,4-1.2,6.1-1.6c2.5-0.4,8.9,0.4,10-1.3&#10;&#9;&#9;s0-5.3,0-5.3"/>
	<path class="st4_online-class-27" d="M211.7,350.8c-0.5-2.8-4.6-1.6-6.5-2.9c-3.5-2.3-3.7-7.3-3.4-11.1l-7.9-2.7l-1.5,9l-0.9,10.2&#10;&#9;&#9;c0.8,1.1,2.1,1.8,3.5,1.8l5.2-1.2C203.6,353.7,212.1,352.8,211.7,350.8z"/>
	<path class="st12_online-class-27" d="M180.1,323.2l-1.9,10.6c0,0,3,3.1,13.3,2.8s0-18.8,0-18.8"/>
	<ellipse class="st4_online-class-27" cx="166.8" cy="348" rx="14.6" ry="5.4"/>
	<polyline class="st4_online-class-27" points="164.3,323.6 164.9,345.5 169.3,345.5 169.3,323.6 &#9;"/>
	<path class="st15_online-class-27" d="M174.1,297.5c0,0,11.5-9.2,19.1-10.3s11.6,7.2,11.1,12.7s-18.8,8.5-18.8,8.5"/>
	<path class="st12_online-class-27" d="M180.3,300.6c1.5-1.4,21-10.5,27.8-6.3s6.4,7.2,5.6,12.3s-7.5,32.3-7.5,32.3c-5,1.9-10.4,2.2-15.6,0.7&#10;&#9;&#9;l1.9-20.2l-25.9-14.2"/>
	<path class="st16_online-class-27" d="M180.3,300.6c1.5-1.4,21-10.5,27.8-6.3s6.4,7.2,5.6,12.3s-7.5,32.3-7.5,32.3c-5,1.9-10.4,2.2-15.6,0.7&#10;&#9;&#9;l1.9-20.2l-25.9-14.2"/>
	<path class="st10_online-class-27" d="M166.1,268.1c1,0.8,9.9,1.8,11.8,5.9s4.7,25.2,4.7,25.2s-5.3,8-14.6,5.1c-2.7-0.8-16.9-26.8-17.3-29.5&#10;&#9;&#9;C149.6,267.8,166.1,268.1,166.1,268.1z"/>
	<path class="st5_online-class-27 targetColor" d="M148.5,313.7c-0.4-1.1-0.8-2.2-1.1-3.3c-2.2-8.5-3.6-40.6,10.8-39.3c15.8,1.4,10.5,41,26.5,39.8&#10;&#9;&#9;s22.6,3,16.1,9.2C187.7,332.5,156.6,332.8,148.5,313.7z" style="fill: rgb(62, 64, 148);"/>
	<path class="st9_online-class-27" d="M171.7,256.6c0.1,0.6,1.2,9.8-1.5,11.9s-8.8-2.8-9-5.2s-2.2-7.5,0.4-8.8S171,252.1,171.7,256.6z"/>
	<path class="st10_online-class-27" d="M169.5,250.2c-0.1-0.1-0.2-0.1-0.3-0.2c-3.5-2-9.2-1.5-12.1,1.4c-0.8,0.8-1.4,1.8-2,2.8&#10;&#9;&#9;c-0.4,0.7-0.9,1.5-1.4,2.2c-0.1,3.7,1.3,7.3,3.9,9.9c2.5,1.6,5.4,2.5,8.3,2.5c1.1-3.4-0.5-7.3,1.1-10.7c0.8-1.5,2.1-2.8,3.6-3.5&#10;&#9;&#9;C170.7,253,170.3,251.5,169.5,250.2z"/>
	<path class="st9_online-class-27" d="M168.4,263c-0.4-1-1.1-1.9-2.1-2.3c-0.9-0.4-2.1-0.5-2.7,0.5c-1.2,2.2,1.8,3.7,3.3,4.3&#10;&#9;&#9;c0.8,0.3,1.1-0.9,0.3-1.2l-0.2-0.1h0.1c0.3,0,0.6-0.2,0.6-0.5c0,0,0,0,0,0C168.1,263.8,168.6,263.5,168.4,263z"/>
	<polygon class="st5_online-class-27 targetColor" points="192.5,259.1 218.1,275.2 213.9,293.2 190,276.9 &#9;" style="fill: rgb(62, 64, 148);"/>
	<path class="st11_online-class-27" d="M190,276.9c0,0-13.1,6.5-12.9,6.7s23.1,17.3,23.1,17.3l13.7-7.6L190,276.9z"/>
	<path class="st9_online-class-27" d="M195.5,290.6c0,0,3.5-3.1,4-3.4c0.8-0.2,1.6,0.1,2.3,0.6c0.6,0.5,1.3,0.3,2,1s2.2,3,1.8,3.6s-1.7-0.9-2.1-1.2&#10;&#9;&#9;s0,1.2-0.6,2.2s-4.2,1.9-5.2,1.7"/>
	<path class="st10_online-class-27" d="M178.4,276.9c0,0,4.2,14.5,6.7,14.6s10.3-2.6,10.3-2.6s3.4,3.5,3,5.6s-14.2,9.9-20,8.5s-8.6-21.4-8.5-21.8&#10;&#9;&#9;S178.4,276.9,178.4,276.9z"/>
	<path class="st9_online-class-27" d="M193.2,282c-0.7-0.5-1.4-1-2.1-1.4c-0.6-0.3-1.2-0.6-1.8-1c-0.5-0.3-1.1-0.4-1.7-0.3c-1.3,0.9-2.5,1.9-3.6,3&#10;&#9;&#9;c-0.7,0.5-1.4,1-2.1,1.4c-0.3,0.2-0.4,0.6-0.2,0.9c0.1,0.2,0.4,0.4,0.7,0.3c0.4-0.1,0.7-0.2,1-0.3c0,0.2,0,0.4,0,0.7&#10;&#9;&#9;c-0.1,0.8,0,1.5,0.4,2.2c0,0.1,0.1,0.2,0.2,0.2l-0.5,0.2c-0.8,0.3-0.4,1.5,0.3,1.2l4.3-1.6c1-0.3,2-0.8,2.7-1.6&#10;&#9;&#9;c0.2-0.3,0.2-0.7-0.1-0.9c-0.1-0.1-0.3-0.2-0.5-0.1c-0.3,0.1-0.6,0.2-0.9,0.3c0.7-0.9,1.7-2,2.1-1.7c0.6,0.5,2.2,0.8,2.9,0.1&#10;&#9;&#9;S193.7,282.3,193.2,282z"/>
	<path class="st10_online-class-27" d="M184,282.4c0,0-4.4,0.6-7.7,0.7c-1.4,1.8-2.6,3.8-3.8,5.7c0.2,1.2,0.4,2.5,0.6,3.7c0.1,0.2,0.1,0.5,0.1,0.7&#10;&#9;&#9;c5.9-1,12.2-3.4,12.7-4.7C186.6,286.5,184,282.4,184,282.4z"/>
	<path class="st10_online-class-27" d="M159.8,253.8c-0.2-1-1.1-1.8-2.1-2.1c-3.1-0.8-7.1,1-8,4.2c-0.7,3.5,1.5,7,5,7.8c3.4,0.3,6.4-2.3,6.7-5.7&#10;&#9;&#9;c0-0.1,0-0.3,0-0.4C161.5,256.2,160.9,254.8,159.8,253.8z"/>
</g>
<g id="character_1_online-class-27">
	<path class="st11_online-class-27" d="M265.5,368.5c0,0.5-0.4,6.7,0.3,7.5s2.5,4.2,4.8,4.4s4.4-0.3,4.8,2.1s-12.8,3.2-12.8,3.2s-1.4-5.5-2-5.4&#10;&#9;&#9;s-0.6,6.1-0.6,6.1l-2.5,0.5l-2.5-1.6l1-10.6l1.6-9"/>
	<path class="st11_online-class-27" d="M275.5,377.4c-0.3,3.8-0.1,8.8,3.4,11.1c1.9,1.2,6,0.1,6.5,2.9c0.4,2.4-12.8,3.3-12.8,3.3s-1.4-5.5-2-5.4&#10;&#9;&#9;s-0.5,6.1-0.5,6.1l-2.5,0.5l-2.5-1.6l0.9-10.6l1.5-9"/>
	<path class="st12_online-class-27" d="M253.8,363.7l-1.9,10.6c0,0,3,3.1,13.3,2.8s0-18.8,0-18.8"/>
	<ellipse class="st4_online-class-27" cx="240.5" cy="388.4" rx="14.6" ry="5.4"/>
	<polyline class="st4_online-class-27" points="238,364.1 238.6,386 242.9,386 242.9,364.1 &#9;"/>
	<path class="st12_online-class-27" d="M247.8,338c0,0,11.5-9.2,19.1-10.3s11.6,7.2,11,12.7s-18.8,8.6-18.8,8.6"/>
	<path class="st12_online-class-27" d="M253.9,341c1.5-1.4,21-10.5,27.8-6.3s6.4,7.2,5.6,12.3s-7.5,32.3-7.5,32.3c-5,1.9-10.4,2.2-15.6,0.7l1.9-20.2&#10;&#9;&#9;l-25.9-14.2"/>
	<path class="st16_online-class-27" d="M253.9,341c1.5-1.4,21-10.5,27.8-6.3s6.4,7.2,5.6,12.3s-7.5,32.3-7.5,32.3c-5,1.9-10.4,2.2-15.6,0.7l1.9-20.2&#10;&#9;&#9;l-25.9-14.2"/>
	<path class="st7_online-class-27" d="M239.7,308.5c1,0.8,9.9,1.8,11.8,5.9s4.7,25.2,4.7,25.2s-5.3,7.9-14.6,5.1c-2.8-0.8-17-26.8-17.3-29.5&#10;&#9;&#9;C223.3,308.2,239.7,308.5,239.7,308.5z"/>
	<path class="st5_online-class-27 targetColor" d="M222.2,354.2c-0.5-1.1-0.8-2.2-1.1-3.3c-2.2-8.5-3.6-40.6,10.8-39.3c15.8,1.4,10.5,41,26.5,39.8s22.6,3,16,9.2&#10;&#9;&#9;C261.4,373,230.2,373.2,222.2,354.2z" style="fill: rgb(62, 64, 148);"/>
	<path class="st9_online-class-27" d="M245.4,297.1c0.1,0.6,1.3,9.8-1.5,11.9s-8.8-2.8-9-5.2s-2.2-7.5,0.4-8.8S244.7,292.5,245.4,297.1z"/>
	<path class="st10_online-class-27" d="M242.8,290.4c-3.5-2-9.2-1.5-12.1,1.4c-0.8,0.8-1.4,1.8-2,2.8c-0.4,0.7-0.9,1.5-1.4,2.1&#10;&#9;&#9;c-0.1,3.7,1.3,7.3,3.9,9.9c2.9,1.9,6.4,2.8,9.8,2.5c-0.3-1.2-0.6-2.4-0.8-3.7c-0.3-2-0.8-4.5,0.7-6.2c0.5-0.6,1.3-0.9,2.1-0.7&#10;&#9;&#9;l0.1-0.1l3,0.2C246.2,298.7,248.3,293.6,242.8,290.4z"/>
	<path class="st10_online-class-27" d="M228.6,296c-3.3-6-13.4-3-14.1,3.3c-0.3,3,0.5,6,2.3,8.5c2.4,3,2.5,9.6-1.6,14.4s-0.8,10.6,4,12.7&#10;&#9;&#9;s15.1,2,14.7-6.4s-10.4-19-10.3-24.8s5.9-2.5,5.9-2.5"/>
	<path class="st11_online-class-27" d="M230.2,296.2c0-1.4-1.1-2.5-2.5-2.5c-1.4,0-2.4,1.1-2.5,2.5c-0.1,1-0.1,2-0.1,3c0,1.4,1.1,2.5,2.5,2.5&#10;&#9;&#9;s2.5-1.1,2.5-2.5C230.2,298.2,230.2,297.2,230.2,296.2z"/>
	<path class="st9_online-class-27" d="M242.1,303.4c-0.4-1-1.1-1.9-2.1-2.3c-0.9-0.4-2.1-0.5-2.7,0.5c-1.2,2.2,1.8,3.7,3.4,4.3&#10;&#9;&#9;c0.7,0.3,1.1-0.9,0.3-1.2l-0.3-0.1h0.1c0.3,0,0.6-0.2,0.6-0.5c0,0,0,0,0,0C241.8,304.2,242.2,303.9,242.1,303.4z"/>
	<polygon class="st5_online-class-27 targetColor" points="266.2,299.6 291.8,315.6 287.5,333.6 263.6,317.3 &#9;" style="fill: rgb(62, 64, 148);"/>
	<path class="st11_online-class-27" d="M263.6,317.3c0,0-13.1,6.5-12.9,6.7s23.1,17.3,23.1,17.3l13.7-7.7L263.6,317.3z"/>
	<path class="st9_online-class-27" d="M269.1,331.1c0,0,3.5-3.1,4-3.4c0.8-0.1,1.6,0.1,2.2,0.6c0.5,0.5,1.3,0.3,2,1s2.2,3,1.8,3.6s-1.7-0.9-2.1-1.2&#10;&#9;&#9;s0,1.2-0.6,2.2s-4.2,1.9-5.2,1.7"/>
	<path class="st7_online-class-27" d="M252.1,317.3c0,0,4.2,14.5,6.7,14.6s10.3-2.6,10.3-2.6s3.4,3.5,3,5.6s-14.2,9.9-20,8.5s-8.6-21.4-8.5-21.8&#10;&#9;&#9;S252.1,317.3,252.1,317.3z"/>
	<path class="st9_online-class-27" d="M266.9,322.4c-0.7-0.5-1.4-1-2.1-1.4c-0.6-0.3-1.2-0.6-1.8-1c-0.5-0.3-1.1-0.4-1.7-0.3c-1.3,0.9-2.5,1.9-3.6,3&#10;&#9;&#9;c-0.7,0.5-1.4,1-2.1,1.4c-0.3,0.2-0.4,0.6-0.2,0.9c0.1,0.2,0.4,0.3,0.7,0.3c0.4-0.1,0.7-0.2,1.1-0.3c0,0.2,0,0.4,0,0.7&#10;&#9;&#9;c-0.1,0.8,0,1.5,0.4,2.2c0,0.1,0.1,0.2,0.2,0.2l-0.5,0.2c-0.7,0.3-0.4,1.5,0.3,1.2l4.3-1.6c1-0.3,2-0.8,2.7-1.6&#10;&#9;&#9;c0.2-0.3,0.2-0.7-0.1-0.9c-0.1-0.1-0.3-0.1-0.5-0.1c-0.3,0.1-0.6,0.2-0.9,0.3c0.7-0.9,1.7-2,2.1-1.7c0.6,0.5,2.2,0.8,2.9,0.1&#10;&#9;&#9;S267.4,322.7,266.9,322.4z"/>
	<path class="st7_online-class-27" d="M257.6,322.9c0,0-4.4,0.6-7.8,0.7c-1.4,1.8-2.6,3.8-3.8,5.7c0.2,1.2,0.4,2.5,0.6,3.7c0.1,0.2,0.1,0.5,0.1,0.7&#10;&#9;&#9;c5.9-1,12.2-3.4,12.7-4.7C260.2,326.9,257.6,322.9,257.6,322.9z"/>
</g>
</svg>